P3
3 3
255
153 0 3
7 15 160
223 238 0
241 171 11
210 0 240
12 95 25
63 169 165
110 54 31
87 0 210
