P3
3 3
255
159 0 0
0 15 159
214 246 0
246 169 0
214 0 246
18 87 36
57 171 173
95 48 19
90 12 214
